# xmcd
#
# Track frame offsets:
#	183
#	24765
#	43518
#	62658
#	82370
#	105955
#	121475
#	142708
#
# Disc length: 2182 seconds
#
# Revision: 0
# Processed by: cddbd v1.5.2PL0 Copyright (c) Steve Scherf et al.
# Submitted via: EasyCDDAExtractor 15.2.1.1
#
DISCID=5c088408
DTITLE=eysuhl™ 엄인호 - 엄인호 [1993 Donga vipcd128] Sweet Blue Hours
DYEAR=1993
DGENRE=Korean
TTITLE0=여자의 남자
TTITLE1=외로운 사람들
TTITLE2=세월이 한참 흐른 뒤에야
TTITLE3=내 맘속에 내리는 비는
TTITLE4=잠 못 이루는 밤
TTITLE5=오늘도 하루를 그냥 보내네
TTITLE6=유혹하지 말아요
TTITLE7=거리에서 (Gray Day)
EXTD=
EXTT0=
EXTT1=
EXTT2=
EXTT3=
EXTT4=
EXTT5=
EXTT6=
EXTT7=
PLAYORDER=
